<svg width="100" height="100" viewBox="0 0 100 100" fill="none" xmlns="http://www.w3.org/2000/svg">
<path fill-rule="evenodd" clip-rule="evenodd" d="M50 100C77.6142 100 100 77.6142 100 50C100 22.3858 77.6142 0 50 0C22.3858 0 0 22.3858 0 50C0 77.6142 22.3858 100 50 100ZM75.2609 24.5141L75.4874 24.7406V24.737C78.0286 27.2925 79.455 30.75 79.455 34.3539C79.455 37.9578 78.0286 41.4153 75.4874 43.9708L66.9115 52.5432C66.9548 49.9973 66.4865 47.4686 65.5343 45.1071L71.0754 39.5696C72.4546 38.187 73.2291 36.3139 73.2291 34.3611C73.2291 32.4083 72.4546 30.5352 71.0754 29.1526L70.8489 28.9261C69.4668 27.546 67.5935 26.7709 65.6404 26.7709C63.6873 26.7709 61.814 27.546 60.4319 28.9261L48.1811 41.1769C46.801 42.559 46.0259 44.4323 46.0259 46.3854C46.0259 48.3385 46.801 50.2118 48.1811 51.5939L48.4076 51.8204C48.8471 52.2572 49.34 52.6365 49.8747 52.9495L45.3908 57.4334C44.9053 57.0666 44.4379 56.6711 43.9992 56.2288L43.7727 56.0023C41.2326 53.4469 39.8068 49.9902 39.8068 46.3872C39.8068 42.7841 41.2326 39.3274 43.7727 36.7721L56.0271 24.5141C58.5826 21.9729 62.0401 20.5464 65.644 20.5464C69.2479 20.5464 72.7054 21.9729 75.2609 24.5141ZM55.9875 41.1949C56.477 41.5644 56.9408 41.9668 57.3755 42.3995L57.602 42.626C60.1432 45.1815 61.5696 48.639 61.5696 52.2429C61.5696 55.8468 60.1432 59.3043 57.602 61.8598L45.3476 74.1142C42.7916 76.6546 39.3344 78.0804 35.7307 78.0804C32.1271 78.0804 28.6698 76.6546 26.1138 74.1142L25.8873 73.8877C23.3461 71.3322 21.9196 67.8747 21.9196 64.2708C21.9196 60.6669 23.3461 57.2094 25.8873 54.6539L34.4632 46.0851C34.4199 48.631 34.8882 51.1597 35.8404 53.5212L30.2993 59.0587C28.9201 60.4413 28.1456 62.3144 28.1456 64.2672C28.1456 66.22 28.9201 68.0931 30.2993 69.4757L30.5258 69.7022C31.9079 71.0823 33.7812 71.8574 35.7343 71.8574C37.6874 71.8574 39.5607 71.0823 40.9428 69.7022L53.1936 57.455C54.5736 56.0729 55.3488 54.1996 55.3488 52.2465C55.3488 50.2934 54.5736 48.4201 53.1936 47.038L52.9671 46.8115C52.5176 46.3656 52.0214 45.9916 51.5 45.6824L55.9875 41.1949Z" fill="url(#paint0_linear_65_466)"/>
<defs>
<linearGradient id="paint0_linear_65_466" x1="50" y1="0" x2="50" y2="100" gradientUnits="userSpaceOnUse">
<stop stop-color="#CAD4E4"/>
<stop offset="1" stop-color="#B4C0D0"/>
</linearGradient>
</defs>
</svg>
