<svg width="96" height="86" viewBox="0 0 96 86" fill="none" xmlns="http://www.w3.org/2000/svg">
<path d="M91 46H5C2.23858 46 0 46.7786 0 47.7391V84.2609C0 85.2214 2.23858 86 5 86H91C93.7614 86 96 85.2214 96 84.2609V47.7391C96 46.7786 93.7614 46 91 46Z" fill="#F8F8F8"/>
<path d="M38 56H12C10.3431 56 9 57.3431 9 59C9 60.6569 10.3431 62 12 62H38C39.6569 62 41 60.6569 41 59C41 57.3431 39.6569 56 38 56Z" fill="#E8E8E8"/>
<path d="M56 69H12C10.3431 69 9 70.3431 9 72C9 73.6569 10.3431 75 12 75H56C57.6569 75 59 73.6569 59 72C59 70.3431 57.6569 69 56 69Z" fill="#E8E8E8"/>
<path d="M91 0H5C2.23858 0 0 2.23858 0 5V35C0 37.7614 2.23858 40 5 40H91C93.7614 40 96 37.7614 96 35V5C96 2.23858 93.7614 0 91 0Z" fill="#F8F8F8"/>
<path d="M38 11H12C10.3431 11 9 12.3431 9 14C9 15.6569 10.3431 17 12 17H38C39.6569 17 41 15.6569 41 14C41 12.3431 39.6569 11 38 11Z" fill="#E8E8E8"/>
<path d="M56 24H12C10.3431 24 9 25.3431 9 27C9 28.6569 10.3431 30 12 30H56C57.6569 30 59 28.6569 59 27C59 25.3431 57.6569 24 56 24Z" fill="#E8E8E8"/>
</svg>
