<svg width="386" height="150" viewBox="0 0 386 150" fill="none" xmlns="http://www.w3.org/2000/svg">
<g clip-path="url(#clip0_518_2110)">
<path d="M65.5559 54.8898C59.2121 47.5938 71.3274 38.9554 75.9796 34.4388C75.1337 37.9132 71.1783 45.509 77.522 53.8472C82.8394 60.8363 69.3622 67.5076 65.5559 72.0241C67.2479 67.1602 70.7398 60.8517 65.5559 54.8898Z" fill="black"/>
<path d="M64.4378 80.6213H98.7931V98.1536C98.7931 113.003 86.7553 125.04 71.9062 125.04C57.0575 125.04 45.0198 113.003 45.0198 98.1536V49.4214C45.0198 34.5725 57.0575 22.535 71.9062 22.535C86.7553 22.535 98.7931 34.5725 98.7931 49.4214V56.9239" stroke="black" stroke-width="7.90909" stroke-linecap="round"/>
<path d="M101.879 80.6213H111.276C116.938 80.6213 121.527 85.2104 121.527 90.8718C121.527 96.5331 116.938 101.122 111.278 101.122C108.102 101.122 104.7 101.122 101.879 101.122" stroke="black" stroke-width="7.90909"/>
<path d="M74.9999 146.203C114.324 146.203 146.202 114.324 146.202 75C146.202 35.6759 114.324 3.79747 74.9999 3.79747C35.6758 3.79747 3.79736 35.6759 3.79736 75C3.79736 114.324 35.6758 146.203 74.9999 146.203Z" stroke="black" stroke-width="7.90909"/>
</g>
<path d="M164.612 83.22C164.612 89.52 166.628 94.644 170.66 98.676C174.692 102.708 179.9 104.64 186.116 104.64C192.332 104.64 197.54 102.708 201.572 98.676C205.604 94.644 207.704 89.52 207.704 83.22C207.704 76.836 205.688 71.544 201.656 67.512C197.624 63.48 192.416 61.464 186.116 61.464C179.9 61.464 174.692 63.564 170.66 67.596C166.628 71.628 164.612 76.836 164.612 83.22ZM200.9 83.22C200.816 87.588 199.388 91.2 196.616 93.972C193.844 96.828 190.316 98.172 186.116 98.172C181.832 98.172 178.304 96.828 175.616 93.972C172.844 91.2 171.5 87.588 171.5 83.22C171.5 78.684 172.844 74.904 175.616 72.048C178.388 69.192 181.916 67.764 186.2 67.764C190.4 67.764 193.844 69.276 196.7 72.132C199.472 74.988 200.9 78.684 200.9 83.22Z" fill="black"/>
<path d="M225.977 45.084H219.089V103.884H225.977V45.084Z" fill="black"/>
<path d="M277.305 97.248L272.685 93.048C271.341 94.728 269.409 95.988 266.889 96.912C264.369 97.836 261.933 98.256 259.497 98.256C255.465 98.256 252.021 97.164 249.249 94.896C246.393 92.628 244.797 89.604 244.461 85.824H279.741C280.497 77.928 278.901 71.964 274.953 67.764C271.005 63.564 265.713 61.464 258.993 61.464C252.693 61.464 247.569 63.48 243.537 67.512C239.505 71.544 237.489 76.752 237.489 82.968C237.489 89.52 239.505 94.812 243.537 98.76C247.569 102.708 252.777 104.64 259.329 104.64C262.689 104.64 266.049 104.052 269.325 102.792C272.517 101.532 275.205 99.684 277.221 97.248H277.305ZM273.189 80.028H244.461C244.965 76.164 246.645 73.14 249.417 70.956C252.105 68.772 255.381 67.68 259.161 67.68C263.277 67.68 266.637 68.772 269.157 70.956C271.677 73.14 273.021 76.164 273.189 80.112V80.028Z" fill="black"/>
<path d="M331.052 45.084H324.248V69.948C322.82 67.26 320.636 65.244 317.78 63.816C314.84 62.388 311.816 61.632 308.708 61.632C302.576 61.632 297.536 63.564 293.672 67.344C289.724 71.124 287.792 76.416 287.792 83.136C287.792 89.856 289.724 95.064 293.672 98.928C297.62 102.792 302.66 104.64 308.792 104.64C311.984 104.64 314.924 103.968 317.696 102.54C320.468 101.112 322.652 99.012 324.332 96.24L324.668 103.8H331.136V45L331.052 45.084ZM309.212 68.016C313.412 68.016 316.856 69.444 319.712 72.216C322.568 75.072 323.996 78.6 323.996 82.968C323.996 87.504 322.568 91.116 319.796 93.888C316.94 96.744 313.496 98.088 309.296 98.088C305.096 98.088 301.568 96.744 298.796 94.056C296.024 91.368 294.68 87.756 294.68 83.052C294.68 78.348 296.024 74.736 298.796 72.048C301.568 69.36 305.096 68.016 309.296 68.016H309.212Z" fill="black"/>
<path d="M342.026 83.22C342.026 89.52 344.042 94.644 348.074 98.676C352.106 102.708 357.314 104.64 363.53 104.64C369.746 104.64 374.954 102.708 378.986 98.676C383.018 94.644 385.118 89.52 385.118 83.22C385.118 76.836 383.102 71.544 379.07 67.512C375.038 63.48 369.83 61.464 363.53 61.464C357.314 61.464 352.106 63.564 348.074 67.596C344.042 71.628 342.026 76.836 342.026 83.22ZM378.314 83.22C378.23 87.588 376.802 91.2 374.03 93.972C371.258 96.828 367.73 98.172 363.53 98.172C359.246 98.172 355.718 96.828 353.03 93.972C350.258 91.2 348.914 87.588 348.914 83.22C348.914 78.684 350.258 74.904 353.03 72.048C355.802 69.192 359.33 67.764 363.614 67.764C367.814 67.764 371.258 69.276 374.114 72.132C376.886 74.988 378.314 78.684 378.314 83.22Z" fill="black"/>
<defs>
<clipPath id="clip0_518_2110">
<rect width="150" height="150" fill="white"/>
</clipPath>
</defs>
</svg>
