<svg width="228" height="223" viewBox="0 0 228 223" fill="none" xmlns="http://www.w3.org/2000/svg">
<g clip-path="url(#clip0_519_2193)">
<path d="M104.556 54.8898C98.2122 47.5937 110.328 38.9554 114.98 34.4388C114.134 37.9132 110.178 45.509 116.522 53.8472C121.839 60.8363 108.362 67.5076 104.556 72.0241C106.248 67.1602 109.74 60.8517 104.556 54.8898Z" fill="white"/>
<path d="M103.438 80.6213H137.793V98.1536C137.793 113.003 125.756 125.04 110.906 125.04C96.0577 125.04 84.02 113.003 84.02 98.1536V49.4214C84.02 34.5725 96.0577 22.535 110.906 22.535C125.756 22.535 137.793 34.5725 137.793 49.4214V56.9239" stroke="white" stroke-width="7.90909" stroke-linecap="round"/>
<path d="M140.879 80.6212H150.277C155.938 80.6212 160.527 85.2104 160.527 90.8718C160.527 96.5331 155.939 101.122 150.278 101.122C147.102 101.122 143.7 101.122 140.879 101.122" stroke="white" stroke-width="7.90909"/>
<path d="M114 146.203C153.324 146.203 185.203 114.324 185.203 75C185.203 35.6759 153.324 3.79745 114 3.79745C74.6759 3.79745 42.7975 35.6759 42.7975 75C42.7975 114.324 74.6759 146.203 114 146.203Z" stroke="white" stroke-width="7.90909"/>
</g>
<path d="M41.6085 181.035C36.8515 176.345 31.0895 174 24.3895 174C16.8855 174 10.9895 176.345 6.56748 181.035C2.14548 185.725 -0.0655217 191.621 0.00147815 198.79C0.00147815 202.006 0.470478 205.088 1.47548 207.902C2.48048 210.716 3.95448 213.262 5.89748 215.473C7.84048 217.751 10.3865 219.493 13.6025 220.766C16.8185 222.106 20.4365 222.709 24.4565 222.709C31.5585 222.709 37.6555 220.096 42.6135 214.736V196.177H22.7145V201.336H37.3205V212.458C33.6355 215.674 29.3475 217.215 24.5235 217.215C18.4935 217.215 13.8035 215.473 10.5875 211.855C7.37148 208.304 5.76348 203.949 5.76348 198.79C5.76348 193.363 7.37148 188.807 10.7215 185.055C14.0045 181.303 18.5605 179.427 24.3895 179.427C26.8015 179.427 29.2805 179.963 31.8265 180.901C34.3055 181.839 36.4495 183.179 38.2585 184.921L41.6085 181.035Z" fill="white"/>
<path d="M50.3213 205.356C50.3213 210.381 51.9293 214.468 55.1453 217.684C58.3613 220.9 62.5153 222.441 67.4733 222.441C72.4313 222.441 76.5853 220.9 79.8013 217.684C83.0173 214.468 84.6923 210.381 84.6923 205.356C84.6923 200.264 83.0843 196.043 79.8683 192.827C76.6523 189.611 72.4983 188.003 67.4733 188.003C62.5153 188.003 58.3613 189.678 55.1453 192.894C51.9293 196.11 50.3213 200.264 50.3213 205.356ZM79.2653 205.356C79.1983 208.84 78.0593 211.721 75.8483 213.932C73.6373 216.21 70.8233 217.282 67.4733 217.282C64.0563 217.282 61.2423 216.21 59.0983 213.932C56.8873 211.721 55.8153 208.84 55.8153 205.356C55.8153 201.738 56.8873 198.723 59.0983 196.445C61.3093 194.167 64.1233 193.028 67.5403 193.028C70.8903 193.028 73.6373 194.234 75.9153 196.512C78.1263 198.79 79.2653 201.738 79.2653 205.356Z" fill="white"/>
<path d="M99.4697 174.938H93.9757V221.838H99.4697V174.938Z" fill="white"/>
<path d="M140.612 216.545L136.927 213.195C135.855 214.535 134.314 215.54 132.304 216.277C130.294 217.014 128.351 217.349 126.408 217.349C123.192 217.349 120.445 216.478 118.234 214.669C115.956 212.86 114.683 210.448 114.415 207.433H142.555C143.158 201.135 141.885 196.378 138.736 193.028C135.587 189.678 131.366 188.003 126.006 188.003C120.981 188.003 116.894 189.611 113.678 192.827C110.462 196.043 108.854 200.197 108.854 205.155C108.854 210.381 110.462 214.602 113.678 217.751C116.894 220.9 121.048 222.441 126.274 222.441C128.954 222.441 131.634 221.972 134.247 220.967C136.793 219.962 138.937 218.488 140.545 216.545H140.612ZM137.329 202.81H114.415C114.817 199.728 116.157 197.316 118.368 195.574C120.512 193.832 123.125 192.961 126.14 192.961C129.423 192.961 132.103 193.832 134.113 195.574C136.123 197.316 137.195 199.728 137.329 202.877V202.81Z" fill="white"/>
<path d="M183.684 174.938H178.257V194.77C177.118 192.626 175.376 191.018 173.098 189.879C170.753 188.74 168.341 188.137 165.862 188.137C160.971 188.137 156.951 189.678 153.869 192.693C150.72 195.708 149.179 199.929 149.179 205.289C149.179 210.649 150.72 214.803 153.869 217.885C157.018 220.967 161.038 222.441 165.929 222.441C168.475 222.441 170.82 221.905 173.031 220.766C175.242 219.627 176.984 217.952 178.324 215.741L178.592 221.771H183.751V174.871L183.684 174.938ZM166.264 193.229C169.614 193.229 172.361 194.368 174.639 196.579C176.917 198.857 178.056 201.671 178.056 205.155C178.056 208.773 176.917 211.654 174.706 213.865C172.428 216.143 169.681 217.215 166.331 217.215C162.981 217.215 160.167 216.143 157.956 213.999C155.745 211.855 154.673 208.974 154.673 205.222C154.673 201.47 155.745 198.589 157.956 196.445C160.167 194.301 162.981 193.229 166.331 193.229H166.264Z" fill="white"/>
<path d="M192.64 205.356C192.64 210.381 194.248 214.468 197.464 217.684C200.68 220.9 204.834 222.441 209.792 222.441C214.75 222.441 218.904 220.9 222.12 217.684C225.336 214.468 227.011 210.381 227.011 205.356C227.011 200.264 225.403 196.043 222.187 192.827C218.971 189.611 214.817 188.003 209.792 188.003C204.834 188.003 200.68 189.678 197.464 192.894C194.248 196.11 192.64 200.264 192.64 205.356ZM221.584 205.356C221.517 208.84 220.378 211.721 218.167 213.932C215.956 216.21 213.142 217.282 209.792 217.282C206.375 217.282 203.561 216.21 201.417 213.932C199.206 211.721 198.134 208.84 198.134 205.356C198.134 201.738 199.206 198.723 201.417 196.445C203.628 194.167 206.442 193.028 209.859 193.028C213.209 193.028 215.956 194.234 218.234 196.512C220.445 198.79 221.584 201.738 221.584 205.356Z" fill="white"/>
<defs>
<clipPath id="clip0_519_2193">
<rect width="150" height="150" fill="white" transform="translate(39)"/>
</clipPath>
</defs>
</svg>
