<svg width="20" height="20" viewBox="0 0 20 20" fill="none" xmlns="http://www.w3.org/2000/svg">
<path d="M16.6667 7.42861H15.3334V6.14289C15.3334 3.30255 12.9456 1 10 1C7.05449 1 4.66668 3.30257 4.66668 6.14289V7.42861H3.33326C2.59692 7.42861 2 8.0042 2 8.71425V17.7144C2 18.4244 2.59692 19 3.33326 19H16.6667C17.4031 19 18 18.4244 18 17.7144V8.71425C18 8.00422 17.4031 7.42861 16.6667 7.42861ZM6.00003 6.14289C6.00003 4.01263 7.7909 2.28572 10.0001 2.28572C12.2092 2.28572 14.0001 4.01263 14.0001 6.14289V7.42861H6.00003V6.14289ZM16.6667 17.0767C16.6667 17.4289 16.3707 17.7144 16.0054 17.7144H3.99464C3.62941 17.7144 3.33334 17.4289 3.33334 17.0767V9.35201C3.33334 8.99982 3.62941 8.71433 3.99464 8.71433H16.0054C16.3707 8.71433 16.6667 8.99982 16.6667 9.35201V17.0767Z" fill="#111111"/>
<path d="M9.99456 9.99503C8.6147 9.99503 7.49609 11.1136 7.49609 12.4935C7.49609 13.6577 8.29231 14.6359 9.3699 14.9132V15.6216C9.3699 15.9638 9.64729 16.2412 9.98948 16.2412H9.99956C10.3417 16.2412 10.6191 15.9638 10.6191 15.6216V14.9133C11.6968 14.6359 12.493 13.6577 12.493 12.4935C12.493 11.1136 11.3744 9.99503 9.99456 9.99503ZM9.99456 13.7427C9.30463 13.7427 8.74533 13.1834 8.74533 12.4935C8.74533 11.8036 9.30463 11.2443 9.99456 11.2443C10.6845 11.2443 11.2438 11.8036 11.2438 12.4935C11.2438 13.1834 10.6845 13.7427 9.99456 13.7427Z" fill="#111111"/>
</svg>
