<svg width="20" height="20" viewBox="0 0 20 20" fill="none" xmlns="http://www.w3.org/2000/svg">
<path d="M2 4.37496C2 4.19594 2.07024 4.02425 2.19526 3.89767C2.32029 3.77108 2.48986 3.69997 2.66667 3.69997C5.03378 3.69997 7.34044 2.85128 9.6 1.135C9.7154 1.04737 9.85575 1 10 1C10.1442 1 10.2846 1.04737 10.4 1.135C12.6596 2.85128 14.9662 3.69997 17.3333 3.69997C17.5101 3.69997 17.6797 3.77108 17.8047 3.89767C17.9298 4.02425 18 4.19594 18 4.37496V9.0999C18 13.6008 15.3707 16.9082 10.2444 18.953C10.0874 19.0157 9.91264 19.0157 9.75556 18.953C4.62933 16.9082 2 13.5999 2 9.0999V4.37496ZM3.33333 5.03015V9.0999C3.33333 12.9303 5.51378 15.7409 10 17.5976C14.4862 15.7409 16.6667 12.9303 16.6667 9.0999V5.03015C14.376 4.89335 12.1511 4.04916 10 2.51018C7.84889 4.04916 5.624 4.89335 3.33333 5.03015Z" fill="#111111"/>
<circle cx="10" cy="10" r="2.25" stroke="#111111" stroke-width="1.5"/>
</svg>
